<svg xmlns="http://www.w3.org/2000/svg" xmlns:xlink="http://www.w3.org/1999/xlink" viewBox="0 0 131.09 131.99"><defs><style>.cls-1{fill:none;}.cls-2{isolation:isolate;}.cls-3{clip-path:url(#clip-path);}.cls-4{fill:#c9e7f4;}.cls-5,.cls-7{fill:#fcf8e5;}.cls-6{fill:#fff;}.cls-7{mix-blend-mode:multiply;}</style><clipPath id="clip-path"><path class="cls-1" d="M.47,30.39s-2.12,86.26,2.65,94.86c3.93,7.07,24.08,6.55,42.68,6s73.63,3.15,80.44-2.36,4.46-49.2,4.46-64.19c0-17,0-49.52-2.36-56.86S95.06,0,67.55,0,10.5.46,6,3.67C.5,7.6.47,30.39.47,30.39Z"/></clipPath></defs><g class="cls-2"><g id="Layer_2" data-name="Layer 2"><g id="OBJECTS"><g class="cls-3"><path class="cls-4" d="M.47,30.39s-2.12,86.26,2.65,94.86c3.93,7.07,24.08,6.55,42.68,6s73.63,3.15,80.44-2.36,4.46-49.2,4.46-64.19c0-17,0-49.52-2.36-56.86S95.06,0,67.55,0,10.5.46,6,3.67C.5,7.6.47,30.39.47,30.39Z"/><path class="cls-5" d="M69.52,99.23s-36.8,1.53-53.61-12.34-1.24-23.08,8.38-18.55c0,0-7.29-12.28,2.84-17.29S44.6,57.51,44.6,57.51s-4.27-22.88,16.18-26S88.71,57.86,88.71,57.86s22.35-14.54,32.05,5.41C130.81,84,98.27,99.74,69.52,99.23Z"/><path class="cls-6" d="M49.77,56.27c.82-6.86,4.09-11.88,4.78-13.7s-1.49-2.07-2.28-1.11c-2.87,3.48-4.48,11.63-3.64,14.72a.61.61,0,0,0,1.14.09Z"/><path class="cls-6" d="M56.34,39.21c.82-.08,4-2.56,4.29-3.43a1.18,1.18,0,0,0-.88-1.57,3.66,3.66,0,0,0-3,1.8c-.51.68-1.38,2-1,2.85a.58.58,0,0,0,.56.35Z"/><path class="cls-7" d="M20.2,82.32s18.28,10.8,48.9,11.34,46.36-17.61,48.58-21.27c-2.09-2.88-7.13-4-10.5-3.28s-6.17,2.87-8.81,5-5.32,4.3-8.6,5.34c-8.5,2.68-18.22-3.13-27-1.44-5,1-9.24,4.24-14.35,4.51s-9.77-2.38-14.66-3.78S22.22,78,20.2,82.32Z"/></g></g></g></g></svg>