<svg xmlns="http://www.w3.org/2000/svg" xmlns:xlink="http://www.w3.org/1999/xlink" viewBox="0 0 131.09 131.99"><defs><style>.cls-1{fill:none;}.cls-2{isolation:isolate;}.cls-3{clip-path:url(#clip-path);}.cls-4{fill:#c9e7f4;}.cls-5{fill:#f2d231;}.cls-6{fill:#fff;}.cls-7{fill:#e6af29;opacity:0.2;}.cls-7,.cls-9{mix-blend-mode:multiply;}.cls-8,.cls-9{fill:#fcf8e5;}</style><clipPath id="clip-path"><path class="cls-1" d="M.47,30.39s-2.12,86.26,2.65,94.86c3.93,7.07,24.08,6.55,42.68,6s73.63,3.15,80.44-2.36,4.46-49.2,4.46-64.19c0-17,0-49.52-2.36-56.86S95.06,0,67.55,0,10.5.46,6,3.67C.5,7.6.47,30.39.47,30.39Z"/></clipPath></defs><g class="cls-2"><g id="Layer_2" data-name="Layer 2"><g id="OBJECTS"><g class="cls-3"><path class="cls-4" d="M.47,30.39s-2.12,86.26,2.65,94.86c3.93,7.07,24.08,6.55,42.68,6s73.63,3.15,80.44-2.36,4.46-49.2,4.46-64.19c0-17,0-49.52-2.36-56.86S95.06,0,67.55,0,10.5.46,6,3.67C.5,7.6.47,30.39.47,30.39Z"/><path class="cls-5" d="M93.19,50.31c2.21-2.47,6.68-5.2,8.12-6,2.28-1.33,3.91,2,1.69,3.24a48.38,48.38,0,0,1-9.13,4A.83.83,0,0,1,93.19,50.31Z"/><path class="cls-5" d="M37.35,81.68c-2.21,2.47-6.69,5.2-8.12,6-2.28,1.33-3.91-2-1.69-3.24a48.38,48.38,0,0,1,9.13-4A.83.83,0,0,1,37.35,81.68Z"/><path class="cls-5" d="M82.41,38.61c.77-3.25,3.43-7.82,4.32-9.21,1.37-2.29,4.36-.17,3,2a48.75,48.75,0,0,1-6.13,8A.81.81,0,0,1,82.41,38.61Z"/><path class="cls-5" d="M48.13,93.38c-.78,3.25-3.43,7.82-4.32,9.21-1.37,2.29-4.36.17-3-2a49.34,49.34,0,0,1,6.12-8A.82.82,0,0,1,48.13,93.38Z"/><path class="cls-5" d="M67.59,33.6c-.84-3.23-.64-8.53-.5-10.19a1.81,1.81,0,1,1,3.58.33,50.23,50.23,0,0,1-1.67,10A.8.8,0,0,1,67.59,33.6Z"/><path class="cls-5" d="M63,98.38c.83,3.24.63,8.54.5,10.2a1.81,1.81,0,1,1-3.58-.33,50.23,50.23,0,0,1,1.67-10A.8.8,0,0,1,63,98.38Z"/><path class="cls-5" d="M50.83,37c-2.35-2.33-4.87-7-5.6-8.47A1.81,1.81,0,1,1,48.46,27a50.69,50.69,0,0,1,3.64,9.42A.81.81,0,0,1,50.83,37Z"/><path class="cls-5" d="M79.71,95c2.35,2.33,4.87,7,5.6,8.47a1.81,1.81,0,1,1-3.24,1.6,49.84,49.84,0,0,1-3.63-9.42A.81.81,0,0,1,79.71,95Z"/><path class="cls-5" d="M38.06,49.07c-3.21-.73-7.75-3.34-9.13-4.22a1.83,1.83,0,1,1,1.92-3.1,48.33,48.33,0,0,1,7.95,6.09A.83.83,0,0,1,38.06,49.07Z"/><path class="cls-5" d="M92.48,82.92c3.2.73,7.75,3.34,9.13,4.22a1.83,1.83,0,1,1-1.92,3.1,48.89,48.89,0,0,1-8-6.09A.83.83,0,0,1,92.48,82.92Z"/><path class="cls-5" d="M33.74,65.43c-3.09,1.14-8.3,1.42-9.93,1.44a1.84,1.84,0,1,1,0-3.67,48.15,48.15,0,0,1,9.91.78A.84.84,0,0,1,33.74,65.43Z"/><path class="cls-5" d="M97.15,65.37c3.09-1.14,8.29-1.42,9.93-1.44a1.84,1.84,0,1,1,0,3.67,48.28,48.28,0,0,1-9.91-.78A.84.84,0,0,1,97.15,65.37Z"/><path class="cls-5" d="M88.05,43.27c1.47-3,5.07-6.83,6.25-8,1.84-1.9,4.29.85,2.47,2.66A48.93,48.93,0,0,1,89,44.3.82.82,0,0,1,88.05,43.27Z"/><path class="cls-5" d="M42.49,88.72c-1.47,3-5.07,6.83-6.25,8C34.4,98.61,32,95.86,33.77,94a48.89,48.89,0,0,1,7.73-6.35A.82.82,0,0,1,42.49,88.72Z"/><path class="cls-5" d="M74.58,34.93c-.1-3.33,1.25-8.46,1.74-10A1.81,1.81,0,1,1,79.74,26a49.82,49.82,0,0,1-3.8,9.35A.81.81,0,0,1,74.58,34.93Z"/><path class="cls-5" d="M56,97.05c.1,3.34-1.25,8.47-1.74,10.06A1.81,1.81,0,1,1,50.8,106a49.82,49.82,0,0,1,3.8-9.35A.81.81,0,0,1,56,97.05Z"/><path class="cls-5" d="M59,34.16c-1.65-2.89-2.85-8.06-3.16-9.69a1.81,1.81,0,1,1,3.54-.66,50.19,50.19,0,0,1,1,10.07A.82.82,0,0,1,59,34.16Z"/><path class="cls-5" d="M71.55,97.83c1.65,2.89,2.86,8.06,3.16,9.69a1.8,1.8,0,1,1-3.53.66,50.19,50.19,0,0,1-1-10.07A.81.81,0,0,1,71.55,97.83Z"/><path class="cls-5" d="M43.74,42c-2.88-1.61-6.53-5.4-7.62-6.64A1.82,1.82,0,1,1,38.82,33a49.84,49.84,0,0,1,6,8.09A.82.82,0,0,1,43.74,42Z"/><path class="cls-5" d="M86.8,90c2.87,1.61,6.53,5.4,7.62,6.64A1.82,1.82,0,1,1,91.72,99a49,49,0,0,1-6-8.09A.82.82,0,0,1,86.8,90Z"/><path class="cls-5" d="M34.6,57.11c-3.28.17-8.34-1.11-9.91-1.58a1.83,1.83,0,1,1,1-3.51A48,48,0,0,1,35,55.72.83.83,0,0,1,34.6,57.11Z"/><path class="cls-5" d="M95.94,74.88c3.28-.17,8.34,1.11,9.9,1.58a1.83,1.83,0,1,1-1,3.5,47.42,47.42,0,0,1-9.25-3.69A.83.83,0,0,1,95.94,74.88Z"/><path class="cls-5" d="M34.66,73.52c-2.67,1.94-7.61,3.63-9.18,4.09-2.51.82-3.41-2.78-1-3.52a47.8,47.8,0,0,1,9.76-2A.84.84,0,0,1,34.66,73.52Z"/><path class="cls-5" d="M95.82,56.7c2.67-1.94,7.62-3.63,9.19-4.09,2.5-.82,3.4,2.78,1,3.52a47.8,47.8,0,0,1-9.76,2A.84.84,0,0,1,95.82,56.7Z"/><ellipse class="cls-5" cx="66.61" cy="65.77" rx="27.89" ry="26.39" transform="matrix(0.97, -0.26, 0.26, 0.97, -14.65, 19.3)"/><path class="cls-6" d="M56.68,45.2c-5.3,3.35-8.32,8-9.57,9.31s-2.17-.42-1.64-1.46c1.89-3.74,8-8.26,10.77-8.76a.53.53,0,0,1,.44.91Z"/><path class="cls-6" d="M45,57.31a11.21,11.21,0,0,1-1.39,4.92A1,1,0,0,1,42,62.1a3.57,3.57,0,0,1,.49-3.19c.38-.69,1.13-1.9,2-1.92a.47.47,0,0,1,.47.32Z"/><path class="cls-7" d="M90.23,55.88A25.14,25.14,0,0,1,88,78.68C80.54,90,64.7,93.39,51.54,85.86a7.52,7.52,0,0,1,7.24-5.75c2.53.06,5.48,1.41,7.33-.36C67.34,78.56,67.3,76.56,68,75c1.23-2.63,4.36-3.6,7.15-4.27s5.91-1.57,7.23-4.16A10.44,10.44,0,0,0,83.2,62,10,10,0,0,1,84,57.47c.73-1.37,4.69-1.95,6.13-1.43Z"/><path class="cls-8" d="M94.65,107.94s-21.05.87-30.66-7.06-.71-13.2,4.79-10.61c0,0-4.17-7,1.62-9.89s10,3.7,10,3.7S78,71,89.65,69.23s16,15,16,15S118.41,76,124,87.37C129.71,99.2,111.1,108.23,94.65,107.94Z"/><path class="cls-6" d="M83.35,83.36c.47-3.92,2.34-6.79,2.74-7.83s-.85-1.19-1.31-.64c-1.64,2-2.56,6.66-2.08,8.42a.34.34,0,0,0,.65,0Z"/><path class="cls-6" d="M87.11,73.61a6.39,6.39,0,0,0,2.46-2,.67.67,0,0,0-.51-.89,2.07,2.07,0,0,0-1.71,1c-.29.39-.79,1.11-.56,1.63a.36.36,0,0,0,.32.2Z"/><path class="cls-9" d="M66.44,98.26s10.45,6.18,28,6.49,26.52-10.07,27.79-12.16c-1.2-1.65-4.08-2.32-6-1.88a12.91,12.91,0,0,0-5,2.85,15.79,15.79,0,0,1-4.92,3c-4.85,1.53-10.42-1.79-15.46-.82-2.85.54-5.28,2.43-8.2,2.58S77,97,74.18,96.21,67.59,95.76,66.44,98.26Z"/><path class="cls-8" d="M30.88,59.75s-16.3.68-23.75-5.46-.55-10.23,3.72-8.22c0,0-3.24-5.44,1.25-7.66s7.74,2.87,7.74,2.87S18,31.14,27,29.78,39.38,41.43,39.38,41.43s9.9-6.44,14.2,2.4C58,53,43.62,60,30.88,59.75Z"/><path class="cls-6" d="M22.13,40.72a18.86,18.86,0,0,1,2.12-6.06c.29-.77-.66-.92-1-.49a9.93,9.93,0,0,0-1.61,6.51.26.26,0,0,0,.5,0Z"/><path class="cls-6" d="M25,33.17a4.9,4.9,0,0,0,1.9-1.52.52.52,0,0,0-.39-.7,1.64,1.64,0,0,0-1.32.8c-.23.3-.61.86-.44,1.26a.28.28,0,0,0,.25.16Z"/><path class="cls-9" d="M9,52.26s8.1,4.79,21.66,5,20.54-7.8,21.53-9.42a5,5,0,0,0-4.66-1.46,10,10,0,0,0-3.9,2.21A12.34,12.34,0,0,1,39.85,51c-3.76,1.19-8.07-1.38-12-.63-2.21.42-4.1,1.88-6.36,2S17.19,51.29,15,50.67,9.93,50.33,9,52.26Z"/></g></g></g></g></svg>