<svg xmlns="http://www.w3.org/2000/svg" viewBox="0 0 131.09 131.99"><defs><style>.cls-1{isolation:isolate;}.cls-2{fill:#c9e7f4;}.cls-3,.cls-5{fill:#fcf8e5;}.cls-4{fill:#fff;}.cls-5{mix-blend-mode:multiply;}.cls-6,.cls-7,.cls-8,.cls-9{fill:none;stroke:#fff;stroke-linecap:round;stroke-miterlimit:10;}.cls-6{stroke-width:1.07px;}.cls-7{stroke-width:0.61px;}.cls-8{stroke-width:0.91px;}.cls-9{stroke-width:0.73px;}</style></defs><g class="cls-1"><g id="Layer_2" data-name="Layer 2"><g id="OBJECTS"><path class="cls-2" d="M.47,30.39s-2.12,86.26,2.65,94.86c3.93,7.07,24.08,6.55,42.68,6s73.63,3.15,80.44-2.36,4.46-49.2,4.46-64.19c0-17,0-49.52-2.36-56.86S95.06,0,67.55,0,10.5.46,6,3.67C.5,7.6.47,30.39.47,30.39Z"/><path class="cls-3" d="M60.48,78.82s37.75,1.34,54.89-13,1.13-23.68-8.71-19c0,0,7.4-12.64-3-17.72s-17.87,6.74-17.87,6.74S90,12.4,69,9.38,40.55,36.52,40.55,36.52s-23-14.77-32.83,5.75C-2.46,63.54,31,79.52,60.48,78.82Z"/><path class="cls-4" d="M80.46,34.65c-.88-7-4.26-12.16-5-14S77,18.5,77.81,19.48c3,3.55,4.66,11.9,3.82,15.07a.62.62,0,0,1-1.17.1Z"/><path class="cls-4" d="M73.62,17.2c-.84-.08-4.08-2.61-4.43-3.5a1.21,1.21,0,0,1,.9-1.61,3.77,3.77,0,0,1,3.08,1.83c.52.69,1.42,2,1,2.91a.6.6,0,0,1-.57.37Z"/><path class="cls-5" d="M110.94,61.17S92.27,72.36,60.88,73.11,13.23,55.34,10.93,51.61c2.13-3,7.28-4.2,10.75-3.43s6.34,2.9,9.06,5,5.49,4.38,8.86,5.42c8.72,2.7,18.66-3.31,27.7-1.64,5.11,1,9.5,4.3,14.74,4.54s10-2.51,15-4S108.85,56.7,110.94,61.17Z"/><polygon class="cls-6" points="36.13 113.35 38.54 113.96 38.5 116.45 40.89 115.77 42.1 117.94 43.83 116.17 45.96 117.44 46.58 115.04 49.06 115.08 48.39 112.69 50.56 111.48 48.78 109.75 50.06 107.62 47.65 107 47.69 104.52 45.3 105.19 44.1 103.02 42.36 104.79 40.23 103.52 39.62 105.92 37.13 105.89 37.8 108.28 35.63 109.48 37.41 111.22 36.13 113.35"/><polygon class="cls-4" points="40 111.76 41.07 112.03 41.05 113.13 42.12 112.83 42.65 113.8 43.42 113.01 44.37 113.58 44.65 112.51 45.75 112.53 45.45 111.46 46.41 110.93 45.63 110.16 46.19 109.21 45.12 108.93 45.14 107.83 44.08 108.13 43.54 107.16 42.77 107.95 41.82 107.39 41.55 108.46 40.45 108.44 40.74 109.5 39.78 110.04 40.57 110.81 40 111.76"/><path class="cls-4" d="M44.93,124.54a.46.46,0,0,0,.4-.51L41.77,96.81a.45.45,0,0,0-.51-.39.45.45,0,0,0-.39.51l3.55,27.22A.45.45,0,0,0,44.93,124.54Z"/><path class="cls-4" d="M41.77,99.56A.33.33,0,0,0,42,99.4l1.28-2.11a.34.34,0,0,0-.11-.47.33.33,0,0,0-.47.12l-1.28,2.11a.34.34,0,0,0,.11.47A.35.35,0,0,0,41.77,99.56Z"/><path class="cls-4" d="M42.07,101.81a.37.37,0,0,0,.24-.15l1.95-2.93a.34.34,0,0,0-.1-.47.33.33,0,0,0-.47.09l-1.95,2.93a.34.34,0,0,0,.09.47A.35.35,0,0,0,42.07,101.81Z"/><path class="cls-4" d="M41.57,99.59a.3.3,0,0,0,.2-.1.35.35,0,0,0,0-.49L40,97.29a.35.35,0,1,0-.48.5l1.78,1.71A.37.37,0,0,0,41.57,99.59Z"/><path class="cls-4" d="M41.86,101.83a.33.33,0,0,0,.22-.11.34.34,0,0,0,0-.48l-2.64-2.33a.34.34,0,0,0-.45.51l2.63,2.33A.31.31,0,0,0,41.86,101.83Z"/><path class="cls-4" d="M46.48,123.74a.35.35,0,0,0,.21-.1.36.36,0,0,0,0-.49l-1.78-1.71a.35.35,0,0,0-.48.5l1.78,1.71A.38.38,0,0,0,46.48,123.74Z"/><path class="cls-4" d="M47.05,122.11a.36.36,0,0,0,.21-.11.34.34,0,0,0,0-.48l-2.63-2.33a.34.34,0,1,0-.46.51L46.78,122A.3.3,0,0,0,47.05,122.11Z"/><path class="cls-4" d="M43.23,124.17a.34.34,0,0,0,.24-.17l1.28-2.11a.34.34,0,0,0-.11-.47.35.35,0,0,0-.47.12l-1.28,2.11a.34.34,0,0,0,.11.47A.37.37,0,0,0,43.23,124.17Z"/><path class="cls-4" d="M42.26,122.74a.33.33,0,0,0,.24-.15l2-2.93a.34.34,0,0,0-.09-.47.34.34,0,0,0-.48.09l-2,2.93a.34.34,0,0,0,.1.47A.32.32,0,0,0,42.26,122.74Z"/><path class="cls-4" d="M31.82,112.42l22.68-3a.47.47,0,0,0,.39-.52.45.45,0,0,0-.51-.39l-22.68,3a.46.46,0,0,0-.4.51A.47.47,0,0,0,31.82,112.42Z"/><path class="cls-4" d="M34.15,111.89a.35.35,0,0,0,.25-.16.34.34,0,0,0-.12-.47L32.18,110a.34.34,0,0,0-.48.12.35.35,0,0,0,.12.47l2.11,1.28A.35.35,0,0,0,34.15,111.89Z"/><path class="cls-4" d="M32.47,113.87a.35.35,0,0,0,.2-.1L34.38,112a.34.34,0,0,0-.49-.47l-1.71,1.77a.35.35,0,0,0,0,.49A.35.35,0,0,0,32.47,113.87Z"/><path class="cls-4" d="M52.08,109.55a.3.3,0,0,0,.2-.1L54,107.67a.33.33,0,0,0,0-.48.34.34,0,0,0-.48,0L51.79,109a.35.35,0,0,0,0,.49A.33.33,0,0,0,52.08,109.55Z"/><path class="cls-4" d="M54.22,111a.35.35,0,0,0,.25-.16.35.35,0,0,0-.12-.47l-2.11-1.28a.34.34,0,1,0-.35.59L54,111A.37.37,0,0,0,54.22,111Z"/><path class="cls-4" d="M38.76,121.49a.44.44,0,0,0,.36-.27l8.79-21.12a.46.46,0,0,0-.24-.6.45.45,0,0,0-.6.25l-8.79,21.11a.45.45,0,0,0,.25.6A.36.36,0,0,0,38.76,121.49Z"/><path class="cls-4" d="M37.4,120.33l.13,0,2.16-1.19a.33.33,0,0,0,.13-.46.34.34,0,0,0-.46-.14l-2.16,1.19a.34.34,0,0,0-.14.46A.35.35,0,0,0,37.4,120.33Z"/><path class="cls-4" d="M40.44,121.59h.05a.33.33,0,0,0,.23-.42L40,118.78a.34.34,0,0,0-.42-.23.34.34,0,0,0-.24.42l.69,2.37A.33.33,0,0,0,40.44,121.59Z"/><path class="cls-4" d="M46.52,102.45h0a.35.35,0,0,0,.23-.43l-.68-2.37a.34.34,0,0,0-.66.19l.68,2.37A.35.35,0,0,0,46.52,102.45Z"/><path class="cls-4" d="M46.7,102.53l.13,0L49,101.3a.34.34,0,0,0-.33-.6l-2.16,1.18a.35.35,0,0,0-.14.47A.35.35,0,0,0,46.7,102.53Z"/><path class="cls-4" d="M50.15,120a.47.47,0,0,0,.22-.09.46.46,0,0,0,.08-.65l-14-18.08a.46.46,0,0,0-.64-.08.45.45,0,0,0-.08.64l14,18.08A.44.44,0,0,0,50.15,120Z"/><path class="cls-4" d="M48.56,120.51a.34.34,0,0,0,.29-.34l0-2.46a.34.34,0,1,0-.68,0l0,2.46a.35.35,0,0,0,.34.35Z"/><path class="cls-4" d="M51.15,118.5a.34.34,0,0,0,.29-.26.35.35,0,0,0-.25-.42l-2.4-.58a.34.34,0,0,0-.41.26.34.34,0,0,0,.25.41l2.4.58Z"/><path class="cls-4" d="M37.52,103.75a.37.37,0,0,0,.29-.26.34.34,0,0,0-.26-.41l-2.39-.58a.34.34,0,1,0-.17.66l2.4.58A.29.29,0,0,0,37.52,103.75Z"/><path class="cls-4" d="M37.68,103.62a.33.33,0,0,0,.3-.33l0-2.47a.35.35,0,0,0-.34-.35.35.35,0,0,0-.35.34l0,2.47a.35.35,0,0,0,.34.35Z"/><path class="cls-4" d="M55.79,116.3a.47.47,0,0,0,.36-.27.46.46,0,0,0-.24-.6L30.64,104.69a.46.46,0,0,0-.35.85l25.26,10.73A.5.5,0,0,0,55.79,116.3Z"/><path class="cls-4" d="M32.74,106.29a.19.19,0,0,0,.12,0,.33.33,0,0,0,.14-.46l-1.17-2.17a.34.34,0,0,0-.6.32l1.17,2.18A.35.35,0,0,0,32.74,106.29Z"/><path class="cls-4" d="M34.83,107.18l.1,0a.35.35,0,0,0,.16-.46l-1.53-3.16a.33.33,0,0,0-.46-.16.34.34,0,0,0-.16.45L34.47,107A.36.36,0,0,0,34.83,107.18Z"/><path class="cls-4" d="M30.29,107.15h.05l2.37-.67a.34.34,0,0,0-.18-.66l-2.38.67a.34.34,0,0,0-.24.42A.36.36,0,0,0,30.29,107.15Z"/><path class="cls-4" d="M31.4,108.46l.07,0,3.34-1.09a.34.34,0,0,0,.22-.43.34.34,0,0,0-.43-.22l-3.35,1.09a.35.35,0,0,0-.22.43A.35.35,0,0,0,31.4,108.46Z"/><path class="cls-4" d="M53.6,115.15h0l2.38-.66a.34.34,0,1,0-.19-.66l-2.37.66a.35.35,0,0,0-.24.43A.34.34,0,0,0,53.6,115.15Z"/><path class="cls-4" d="M51.51,114.27l.07,0,3.34-1.09a.34.34,0,0,0,.22-.43.35.35,0,0,0-.44-.22l-3.34,1.09a.34.34,0,0,0-.22.43A.35.35,0,0,0,51.51,114.27Z"/><path class="cls-4" d="M54.69,117.51a.2.2,0,0,0,.11,0,.35.35,0,0,0,.14-.47l-1.17-2.17a.34.34,0,0,0-.6.32l1.17,2.18A.34.34,0,0,0,54.69,117.51Z"/><path class="cls-4" d="M53,117.62a.19.19,0,0,0,.1,0,.35.35,0,0,0,.16-.46L51.7,114a.34.34,0,0,0-.46-.16.35.35,0,0,0-.16.46l1.53,3.16A.34.34,0,0,0,53,117.62Z"/><path class="cls-4" d="M32.27,119.28a.51.51,0,0,0,.22-.09l21.77-16.71a.46.46,0,1,0-.56-.73L31.93,118.46a.45.45,0,0,0-.08.64A.44.44,0,0,0,32.27,119.28Z"/><path class="cls-4" d="M34.08,117.63a.33.33,0,0,0,.3-.33A.35.35,0,0,0,34,117l-2.46,0a.35.35,0,0,0-.35.34.34.34,0,0,0,.33.35l2.47,0Z"/><path class="cls-4" d="M35.88,116.26a.34.34,0,0,0,.29-.32.35.35,0,0,0-.32-.37l-3.5-.22a.35.35,0,0,0-.37.32.35.35,0,0,0,.32.37l3.51.22Z"/><path class="cls-4" d="M33.62,120.19a.34.34,0,0,0,.28-.26l.59-2.39a.34.34,0,0,0-.25-.42.34.34,0,0,0-.41.25l-.59,2.4a.34.34,0,0,0,.25.41A.28.28,0,0,0,33.62,120.19Z"/><path class="cls-4" d="M35.31,119.86a.33.33,0,0,0,.29-.27l.69-3.44a.34.34,0,0,0-.27-.41.34.34,0,0,0-.4.27l-.69,3.45a.34.34,0,0,0,.27.4A.2.2,0,0,0,35.31,119.86Z"/><path class="cls-4" d="M52.05,103.84a.34.34,0,0,0,.29-.26l.59-2.39a.34.34,0,1,0-.66-.17l-.59,2.4a.33.33,0,0,0,.25.41Z"/><path class="cls-4" d="M50.26,105.22a.35.35,0,0,0,.29-.28l.69-3.44a.35.35,0,0,0-.26-.41.36.36,0,0,0-.41.27l-.69,3.45a.33.33,0,0,0,.27.4Z"/><path class="cls-4" d="M54.65,104.05a.34.34,0,0,0,0-.68l-2.47-.05a.34.34,0,1,0,0,.68l2.46,0Z"/><path class="cls-4" d="M53.89,105.6a.34.34,0,0,0,.3-.32.34.34,0,0,0-.32-.36l-3.51-.22a.34.34,0,0,0,0,.68l3.51.22Z"/><polygon class="cls-7" points="18.25 88.51 19.63 88.87 19.61 90.29 20.98 89.9 21.66 91.14 22.66 90.13 23.88 90.86 24.23 89.48 25.65 89.5 25.27 88.14 26.51 87.44 25.49 86.45 26.22 85.23 24.85 84.88 24.87 83.46 23.5 83.84 22.81 82.6 21.82 83.62 20.6 82.89 20.25 84.26 18.82 84.24 19.21 85.61 17.97 86.3 18.98 87.29 18.25 88.51"/><polygon class="cls-4" points="20.47 87.6 21.08 87.76 21.07 88.39 21.68 88.22 21.98 88.77 22.43 88.32 22.97 88.64 23.12 88.03 23.76 88.04 23.59 87.43 24.14 87.13 23.69 86.69 24.01 86.14 23.4 85.99 23.41 85.35 22.8 85.53 22.49 84.97 22.05 85.42 21.51 85.1 21.35 85.71 20.72 85.7 20.89 86.31 20.34 86.62 20.79 87.06 20.47 87.6"/><path class="cls-4" d="M23.29,94.92a.26.26,0,0,0,.22-.29l-2-15.58a.26.26,0,0,0-.29-.23.26.26,0,0,0-.23.3L23,94.7A.25.25,0,0,0,23.29,94.92Z"/><path class="cls-4" d="M21.48,80.62a.19.19,0,0,0,.14-.09l.74-1.21a.21.21,0,0,0-.07-.27.2.2,0,0,0-.27.07l-.73,1.21a.2.2,0,0,0,.06.27A.2.2,0,0,0,21.48,80.62Z"/><path class="cls-4" d="M21.65,81.91a.24.24,0,0,0,.14-.09l1.11-1.67a.2.2,0,0,0,0-.28.2.2,0,0,0-.27.06L21.46,81.6a.2.2,0,0,0,.05.28A.35.35,0,0,0,21.65,81.91Z"/><path class="cls-4" d="M21.37,80.64a.24.24,0,0,0,.11-.06.2.2,0,0,0,0-.28l-1-1a.2.2,0,0,0-.28,0,.19.19,0,0,0,0,.27l1,1A.22.22,0,0,0,21.37,80.64Z"/><path class="cls-4" d="M21.53,81.92a.17.17,0,0,0,.12-.06.19.19,0,0,0,0-.28l-1.51-1.33a.19.19,0,0,0-.28,0,.19.19,0,0,0,0,.27l1.51,1.33A.17.17,0,0,0,21.53,81.92Z"/><path class="cls-4" d="M24.18,94.46a.14.14,0,0,0,.11-.06.18.18,0,0,0,0-.27l-1-1a.19.19,0,0,0-.28,0,.2.2,0,0,0,0,.28l1,1A.18.18,0,0,0,24.18,94.46Z"/><path class="cls-4" d="M24.5,93.53a.17.17,0,0,0,.12-.06.19.19,0,0,0,0-.28l-1.5-1.33a.19.19,0,0,0-.28,0,.2.2,0,0,0,0,.28l1.5,1.33A.2.2,0,0,0,24.5,93.53Z"/><path class="cls-4" d="M22.31,94.71a.18.18,0,0,0,.14-.1l.74-1.2a.2.2,0,0,0-.07-.27.2.2,0,0,0-.27.06l-.73,1.21a.2.2,0,0,0,.06.27A.31.31,0,0,0,22.31,94.71Z"/><path class="cls-4" d="M21.76,93.89a.22.22,0,0,0,.14-.09L23,92.13a.19.19,0,0,0-.32-.22l-1.12,1.67a.21.21,0,0,0,.06.28A.28.28,0,0,0,21.76,93.89Z"/><path class="cls-4" d="M15.78,88l13-1.7A.25.25,0,0,0,29,86a.26.26,0,0,0-.29-.22l-13,1.69a.26.26,0,0,0-.22.29A.25.25,0,0,0,15.78,88Z"/><path class="cls-4" d="M17.12,87.68a.22.22,0,0,0,.14-.09.19.19,0,0,0-.07-.27L16,86.59a.19.19,0,0,0-.27.06.2.2,0,0,0,.06.27l1.21.73A.15.15,0,0,0,17.12,87.68Z"/><path class="cls-4" d="M16.15,88.81a.14.14,0,0,0,.12-.06l1-1a.2.2,0,0,0,0-.28.19.19,0,0,0-.28,0l-1,1a.19.19,0,0,0,0,.28A.2.2,0,0,0,16.15,88.81Z"/><path class="cls-4" d="M27.38,86.34a.2.2,0,0,0,.12-.06l1-1a.19.19,0,0,0,0-.27.19.19,0,0,0-.28,0l-1,1a.2.2,0,0,0,0,.28A.18.18,0,0,0,27.38,86.34Z"/><path class="cls-4" d="M28.6,87.19a.24.24,0,0,0,.15-.09.2.2,0,0,0-.07-.27l-1.21-.74a.2.2,0,1,0-.2.34l1.21.73A.18.18,0,0,0,28.6,87.19Z"/><path class="cls-4" d="M19.76,93.18A.24.24,0,0,0,20,93l5-12.09a.26.26,0,0,0-.15-.34.25.25,0,0,0-.34.14l-5,12.09a.26.26,0,0,0,.14.34A.34.34,0,0,0,19.76,93.18Z"/><path class="cls-4" d="M19,92.51l.07,0,1.24-.68a.2.2,0,0,0-.19-.35l-1.24.68a.2.2,0,0,0-.08.27A.2.2,0,0,0,19,92.51Z"/><path class="cls-4" d="M20.72,93.23h0a.2.2,0,0,0,.13-.25l-.39-1.35a.2.2,0,0,0-.38.1l.39,1.36A.2.2,0,0,0,20.72,93.23Z"/><path class="cls-4" d="M24.2,82.27h0a.2.2,0,0,0,.14-.25L24,80.67a.19.19,0,0,0-.24-.14.2.2,0,0,0-.14.25L24,82.13A.19.19,0,0,0,24.2,82.27Z"/><path class="cls-4" d="M24.3,82.32l.07,0,1.24-.68a.2.2,0,0,0,.08-.27.2.2,0,0,0-.27-.08L24.18,82a.19.19,0,0,0-.07.27A.2.2,0,0,0,24.3,82.32Z"/><path class="cls-4" d="M26.28,92.31a.31.31,0,0,0,.12,0,.26.26,0,0,0,.05-.37l-8-10.35a.26.26,0,0,0-.37-.05.27.27,0,0,0,0,.37l8,10.35A.27.27,0,0,0,26.28,92.31Z"/><path class="cls-4" d="M25.36,92.61a.19.19,0,0,0,.17-.19l0-1.41a.2.2,0,0,0-.2-.2.2.2,0,0,0-.2.19l0,1.41a.2.2,0,0,0,.19.2Z"/><path class="cls-4" d="M26.85,91.46a.2.2,0,0,0,.17-.15.21.21,0,0,0-.15-.24l-1.37-.33a.2.2,0,0,0-.24.15.19.19,0,0,0,.15.23l1.37.34Z"/><path class="cls-4" d="M19,83a.2.2,0,0,0,0-.39l-1.37-.33a.21.21,0,0,0-.24.15.19.19,0,0,0,.15.23L19,83Z"/><path class="cls-4" d="M19.14,83a.21.21,0,0,0,.17-.2l0-1.41a.21.21,0,0,0-.19-.2.2.2,0,0,0-.2.2l0,1.41a.2.2,0,0,0,.2.2Z"/><path class="cls-4" d="M29.5,90.2a.25.25,0,0,0,.21-.15.27.27,0,0,0-.14-.35L15.11,83.56a.25.25,0,0,0-.34.14.26.26,0,0,0,.13.34l14.47,6.15A.2.2,0,0,0,29.5,90.2Z"/><path class="cls-4" d="M16.31,84.47l.07,0a.2.2,0,0,0,.08-.26l-.67-1.25a.21.21,0,0,0-.27-.08.21.21,0,0,0-.08.27l.67,1.24A.19.19,0,0,0,16.31,84.47Z"/><path class="cls-4" d="M17.5,85l.06,0a.19.19,0,0,0,.09-.26l-.87-1.81a.2.2,0,0,0-.27-.09.21.21,0,0,0-.09.26l.88,1.81A.2.2,0,0,0,17.5,85Z"/><path class="cls-4" d="M14.91,85h0l1.36-.38a.2.2,0,0,0,.14-.25.2.2,0,0,0-.24-.13l-1.36.38a.19.19,0,0,0-.14.24A.19.19,0,0,0,14.91,85Z"/><path class="cls-4" d="M15.54,85.71h0l1.91-.63a.19.19,0,1,0-.12-.37l-1.91.62a.21.21,0,0,0-.13.25A.19.19,0,0,0,15.54,85.71Z"/><path class="cls-4" d="M28.25,89.55h0l1.36-.38a.2.2,0,0,0,.13-.24.19.19,0,0,0-.24-.14l-1.36.38a.2.2,0,0,0,.08.39Z"/><path class="cls-4" d="M27.06,89h0L29,88.41a.2.2,0,0,0,.13-.25.21.21,0,0,0-.25-.13L27,88.66a.2.2,0,0,0,.09.38Z"/><path class="cls-4" d="M28.87,90.9l.07,0a.2.2,0,0,0,.08-.27l-.67-1.24a.2.2,0,0,0-.35.18l.67,1.25A.2.2,0,0,0,28.87,90.9Z"/><path class="cls-4" d="M27.89,91l.06,0a.19.19,0,0,0,.09-.26l-.88-1.81a.19.19,0,0,0-.26-.09.19.19,0,0,0-.09.26l.88,1.81A.19.19,0,0,0,27.89,91Z"/><path class="cls-4" d="M16,91.91a.26.26,0,0,0,.12,0l12.47-9.57a.27.27,0,0,0,.05-.37.28.28,0,0,0-.37,0L15.85,91.44a.26.26,0,0,0,0,.37A.26.26,0,0,0,16,91.91Z"/><path class="cls-4" d="M17.08,91a.21.21,0,0,0,.17-.19.2.2,0,0,0-.19-.2l-1.42,0a.21.21,0,0,0-.2.19.2.2,0,0,0,.2.2l1.41,0Z"/><path class="cls-4" d="M18.1,90.18a.2.2,0,0,0,0-.39l-2-.13a.21.21,0,0,0-.21.18.2.2,0,0,0,.19.21l2,.13Z"/><path class="cls-4" d="M16.81,92.43a.2.2,0,0,0,.17-.15l.33-1.37a.2.2,0,1,0-.38-.09l-.34,1.37a.21.21,0,0,0,.15.24Z"/><path class="cls-4" d="M17.78,92.24a.2.2,0,0,0,.17-.15l.39-2A.19.19,0,1,0,18,90l-.4,2a.2.2,0,0,0,.15.23A.08.08,0,0,0,17.78,92.24Z"/><path class="cls-4" d="M27.37,83.07a.2.2,0,0,0,.16-.15l.34-1.37a.21.21,0,0,0-.15-.24.19.19,0,0,0-.23.15l-.34,1.37a.2.2,0,0,0,.14.24Z"/><path class="cls-4" d="M26.34,83.86a.18.18,0,0,0,.16-.16l.4-2a.19.19,0,0,0-.38-.08l-.4,2a.21.21,0,0,0,.15.24Z"/><path class="cls-4" d="M28.85,83.19A.19.19,0,0,0,29,83a.19.19,0,0,0-.19-.2l-1.41,0a.2.2,0,0,0-.2.19.19.19,0,0,0,.19.2l1.41,0Z"/><path class="cls-4" d="M28.42,84.08a.2.2,0,0,0,.17-.18.19.19,0,0,0-.19-.21l-2-.13a.19.19,0,0,0-.21.18.19.19,0,0,0,.18.21l2,.13Z"/><polygon class="cls-8" points="95.69 90.7 96.92 92.4 95.56 94.01 97.48 94.86 97.1 96.93 99.19 96.71 99.9 98.69 101.6 97.46 103.2 98.82 104.06 96.9 106.13 97.28 105.91 95.19 107.89 94.48 106.66 92.78 108.02 91.17 106.1 90.32 106.48 88.25 104.39 88.47 103.68 86.48 101.98 87.72 100.38 86.36 99.52 88.28 97.45 87.9 97.67 89.99 95.69 90.7"/><polygon class="cls-4" points="99.08 91.75 99.63 92.51 99.02 93.22 99.88 93.6 99.7 94.52 100.64 94.42 100.95 95.31 101.71 94.75 102.42 95.36 102.8 94.5 103.72 94.68 103.62 93.74 104.5 93.43 103.95 92.67 104.56 91.96 103.7 91.58 103.88 90.66 102.94 90.76 102.63 89.88 101.87 90.43 101.16 89.82 100.78 90.67 99.86 90.5 99.96 91.44 99.08 91.75"/><path class="cls-4" d="M95.38,102.78a.39.39,0,0,0,.54-.12l12.4-19.73a.39.39,0,0,0-.12-.53.39.39,0,0,0-.54.12l-12.4,19.73A.39.39,0,0,0,95.38,102.78Z"/><path class="cls-4" d="M106.83,84.73a.28.28,0,0,0,.25,0l2-.69a.29.29,0,0,0-.19-.55l-2,.69a.29.29,0,0,0-.18.37A.26.26,0,0,0,106.83,84.73Z"/><path class="cls-4" d="M105.81,86.36a.28.28,0,0,0,.24,0l2.86-.86a.29.29,0,0,0-.17-.56l-2.86.86a.3.3,0,0,0-.19.37A.28.28,0,0,0,105.81,86.36Z"/><path class="cls-4" d="M106.68,84.64a.31.31,0,0,0,.19,0,.29.29,0,0,0,.26-.32l-.24-2.08a.29.29,0,0,0-.32-.26.3.3,0,0,0-.26.32l.24,2.09A.3.3,0,0,0,106.68,84.64Z"/><path class="cls-4" d="M105.66,86.27a.34.34,0,0,0,.2,0,.31.31,0,0,0,.25-.34L105.64,83a.29.29,0,0,0-.33-.25.31.31,0,0,0-.25.34l.47,2.94A.3.3,0,0,0,105.66,86.27Z"/><path class="cls-4" d="M96.83,103.1a.31.31,0,0,0,.19,0,.29.29,0,0,0,.26-.32L97,100.74a.29.29,0,1,0-.58.06l.24,2.08A.3.3,0,0,0,96.83,103.1Z"/><path class="cls-4" d="M98.08,102.34a.34.34,0,0,0,.2,0,.3.3,0,0,0,.25-.33l-.47-3a.29.29,0,1,0-.57.09l.46,3A.28.28,0,0,0,98.08,102.34Z"/><path class="cls-4" d="M94.47,101.61a.27.27,0,0,0,.25,0l2-.69a.29.29,0,0,0-.19-.55l-2,.69a.29.29,0,0,0-.18.37A.26.26,0,0,0,94.47,101.61Z"/><path class="cls-4" d="M94.61,100.16a.29.29,0,0,0,.24,0l2.86-.86a.29.29,0,1,0-.17-.56l-2.86.86a.29.29,0,0,0-.19.36A.35.35,0,0,0,94.61,100.16Z"/><path class="cls-4" d="M93.36,87.75,109.8,98.09a.39.39,0,0,0,.42-.66L93.78,87.09a.4.4,0,0,0-.54.13A.39.39,0,0,0,93.36,87.75Z"/><path class="cls-4" d="M95.17,88.67a.29.29,0,0,0,.43-.34l-.68-2a.31.31,0,0,0-.38-.18.28.28,0,0,0-.17.37l.68,2A.31.31,0,0,0,95.17,88.67Z"/><path class="cls-4" d="M93,89.06a.31.31,0,0,0,.19,0l2.08-.24a.3.3,0,0,0,.26-.32.31.31,0,0,0-.33-.26l-2.08.24a.28.28,0,0,0-.25.32A.3.3,0,0,0,93,89.06Z"/><path class="cls-4" d="M108.17,96.84a.32.32,0,0,0,.19,0l2.08-.24a.29.29,0,1,0-.07-.58l-2.08.24a.29.29,0,0,0-.12.53Z"/><path class="cls-4" d="M108.77,99a.29.29,0,0,0,.43-.35l-.69-2a.29.29,0,0,0-.55.19l.69,2A.29.29,0,0,0,108.77,99Z"/><path class="cls-4" d="M93,97.45a.37.37,0,0,0,.38,0l17.18-9.06a.38.38,0,0,0-.36-.68L93,96.78a.38.38,0,0,0-.16.52A.4.4,0,0,0,93,97.45Z"/><path class="cls-4" d="M92.74,96a.18.18,0,0,0,.1,0l2.06.4a.3.3,0,0,0,.11-.58L93,95.42a.29.29,0,0,0-.34.23A.29.29,0,0,0,92.74,96Z"/><path class="cls-4" d="M94,98.42l0,0a.29.29,0,0,0,.38-.15l.84-1.92a.29.29,0,0,0-.15-.38.28.28,0,0,0-.38.15l-.84,1.92A.29.29,0,0,0,94,98.42Z"/><path class="cls-4" d="M108.37,89.18l0,0a.29.29,0,0,0,.39-.15l.83-1.92a.28.28,0,0,0-.15-.38.29.29,0,0,0-.38.15l-.84,1.92A.28.28,0,0,0,108.37,89.18Z"/><path class="cls-4" d="M108.45,89.34l.11,0,2,.39a.29.29,0,0,0,.11-.57l-2.06-.4a.3.3,0,0,0-.34.24A.32.32,0,0,0,108.45,89.34Z"/><path class="cls-4" d="M101.27,102.62a.38.38,0,0,0,.59-.32l.62-19.41a.39.39,0,1,0-.78,0l-.61,19.41A.38.38,0,0,0,101.27,102.62Z"/><path class="cls-4" d="M99.94,102.1a.28.28,0,0,0,.37,0l1.36-1.6a.29.29,0,0,0,0-.41.3.3,0,0,0-.41,0l-1.36,1.6a.3.3,0,0,0,0,.41Z"/><path class="cls-4" d="M102.73,102.19a.3.3,0,0,0,.33,0,.29.29,0,0,0,0-.41l-1.25-1.68a.3.3,0,0,0-.41,0,.29.29,0,0,0-.06.4l1.26,1.68A.27.27,0,0,0,102.73,102.19Z"/><path class="cls-4" d="M101.78,85.17a.29.29,0,0,0,.33,0,.28.28,0,0,0,.06-.4l-1.26-1.68a.28.28,0,0,0-.4-.06.29.29,0,0,0-.06.41l1.25,1.68Z"/><path class="cls-4" d="M102,85.17a.27.27,0,0,0,.37-.06l1.36-1.59a.29.29,0,0,0,0-.41.3.3,0,0,0-.41,0l-1.36,1.6a.29.29,0,0,0,0,.41A.05.05,0,0,0,102,85.17Z"/><path class="cls-4" d="M106.94,103.26a.39.39,0,0,0,.39,0,.39.39,0,0,0,.17-.52L96.77,82.07a.38.38,0,0,0-.52-.17.39.39,0,0,0-.17.52l10.73,20.69A.32.32,0,0,0,106.94,103.26Z"/><path class="cls-4" d="M97.28,84.25l.1,0a.29.29,0,0,0,.34-.23l.41-2a.3.3,0,0,0-.23-.35.29.29,0,0,0-.34.23L97.15,84A.29.29,0,0,0,97.28,84.25Z"/><path class="cls-4" d="M98.17,86a.2.2,0,0,0,.08,0,.28.28,0,0,0,.35-.21l.71-2.9a.29.29,0,0,0-.56-.14L98,85.64A.28.28,0,0,0,98.17,86Z"/><path class="cls-4" d="M95.21,83.48l0,0,1.92.85a.29.29,0,0,0,.38-.15.28.28,0,0,0-.15-.38L95.49,83a.29.29,0,0,0-.28.51Z"/><path class="cls-4" d="M95.24,84.94l0,0,2.78,1.09a.3.3,0,0,0,.38-.17.28.28,0,0,0-.17-.37l-2.77-1.1a.3.3,0,0,0-.38.17A.29.29,0,0,0,95.24,84.94Z"/><path class="cls-4" d="M106.13,101.33l0,0,1.91.85a.3.3,0,1,0,.24-.54l-1.91-.85a.31.31,0,0,0-.39.15A.3.3,0,0,0,106.13,101.33Z"/><path class="cls-4" d="M105.25,99.62l0,0,2.77,1.09a.3.3,0,0,0,.38-.17.28.28,0,0,0-.16-.37l-2.78-1.1a.3.3,0,0,0-.38.17A.29.29,0,0,0,105.25,99.62Z"/><path class="cls-4" d="M105.57,103.46l.1,0a.29.29,0,0,0,.34-.23l.41-2a.3.3,0,0,0-.23-.35.29.29,0,0,0-.34.23l-.41,2.06A.28.28,0,0,0,105.57,103.46Z"/><path class="cls-4" d="M104.39,102.6a.2.2,0,0,0,.08,0,.29.29,0,0,0,.35-.22l.71-2.9a.29.29,0,0,0-.21-.35.28.28,0,0,0-.35.22l-.71,2.89A.28.28,0,0,0,104.39,102.6Z"/><path class="cls-4" d="M90,92.49a.53.53,0,0,0,.19.06l23.29.84a.39.39,0,0,0,.4-.37.38.38,0,0,0-.38-.4l-23.28-.85a.39.39,0,0,0-.22.72Z"/><path class="cls-4" d="M92,92.39a.29.29,0,0,0,.38,0,.31.31,0,0,0,0-.42l-1.59-1.36a.3.3,0,0,0-.41,0,.29.29,0,0,0,0,.41L92,92.37Z"/><path class="cls-4" d="M93.94,92.46a.29.29,0,0,0,.37,0,.3.3,0,0,0,0-.41l-2.18-2a.3.3,0,0,0-.41,0,.29.29,0,0,0,0,.41l2.18,2.05Z"/><path class="cls-4" d="M90.33,93.81a.29.29,0,0,0,.33,0l1.68-1.25a.28.28,0,0,0,.06-.4.29.29,0,0,0-.4-.07l-1.68,1.25a.3.3,0,0,0-.07.41S90.3,93.8,90.33,93.81Z"/><path class="cls-4" d="M91.62,94.51a.27.27,0,0,0,.34,0l2.31-1.87a.29.29,0,1,0-.36-.46L91.59,94a.29.29,0,0,0,0,.41A.13.13,0,0,0,91.62,94.51Z"/><path class="cls-4" d="M111.24,93.09a.3.3,0,0,0,.33,0l1.68-1.25a.29.29,0,1,0-.34-.47l-1.68,1.25a.29.29,0,0,0-.06.41A.23.23,0,0,0,111.24,93.09Z"/><path class="cls-4" d="M109.32,93a.3.3,0,0,0,.34,0L112,91.12a.28.28,0,0,0,0-.41.29.29,0,0,0-.41,0l-2.31,1.88a.29.29,0,0,0,0,.41Z"/><path class="cls-4" d="M112.83,94.63a.28.28,0,0,0,.37-.06.29.29,0,0,0,0-.41l-1.59-1.36a.28.28,0,0,0-.41,0,.3.3,0,0,0,0,.41l1.59,1.36Z"/><path class="cls-4" d="M111.49,95.24a.3.3,0,0,0,.37,0,.29.29,0,0,0,0-.41l-2.18-2a.29.29,0,0,0-.4.43l2.18,2S111.48,95.23,111.49,95.24Z"/><polygon class="cls-9" points="76.38 117.61 78.02 118.03 77.99 119.73 79.62 119.27 80.44 120.75 81.63 119.54 83.08 120.41 83.5 118.77 85.2 118.79 84.74 117.16 86.22 116.34 85.01 115.16 85.88 113.7 84.24 113.28 84.26 111.59 82.63 112.05 81.81 110.56 80.63 111.78 79.17 110.91 78.75 112.55 77.06 112.52 77.52 114.15 76.03 114.97 77.25 116.16 76.38 117.61"/><polygon class="cls-4" points="79.01 116.53 79.74 116.71 79.73 117.47 80.46 117.26 80.82 117.92 81.35 117.38 82 117.77 82.18 117.04 82.94 117.05 82.73 116.33 83.39 115.96 82.85 115.43 83.24 114.79 82.51 114.6 82.52 113.85 81.8 114.05 81.43 113.39 80.9 113.93 80.26 113.55 80.07 114.27 79.32 114.26 79.52 114.99 78.86 115.35 79.4 115.88 79.01 116.53"/><path class="cls-4" d="M82.38,125.25a.31.31,0,0,0,.27-.35l-2.43-18.57a.31.31,0,1,0-.62.08L82,125A.31.31,0,0,0,82.38,125.25Z"/><path class="cls-4" d="M80.22,108.21a.23.23,0,0,0,.17-.11l.88-1.44a.24.24,0,0,0-.08-.32.23.23,0,0,0-.32.07L80,107.85a.25.25,0,0,0,.08.33A.4.4,0,0,0,80.22,108.21Z"/><path class="cls-4" d="M80.42,109.74a.27.27,0,0,0,.17-.1l1.33-2a.23.23,0,0,0-.07-.32.22.22,0,0,0-.32.06l-1.33,2a.24.24,0,0,0,.06.32A.24.24,0,0,0,80.42,109.74Z"/><path class="cls-4" d="M80.09,108.23a.21.21,0,0,0,.13-.07.25.25,0,0,0,0-.34L79,106.66a.25.25,0,0,0-.34,0,.23.23,0,0,0,0,.33l1.21,1.17A.31.31,0,0,0,80.09,108.23Z"/><path class="cls-4" d="M80.29,109.76a.29.29,0,0,0,.14-.08.23.23,0,0,0,0-.33l-1.8-1.59a.24.24,0,0,0-.33,0,.25.25,0,0,0,0,.33l1.8,1.59A.22.22,0,0,0,80.29,109.76Z"/><path class="cls-4" d="M83.44,124.7a.21.21,0,0,0,.14-.07.24.24,0,0,0,0-.33l-1.21-1.16a.23.23,0,0,0-.33.33l1.22,1.17A.22.22,0,0,0,83.44,124.7Z"/><path class="cls-4" d="M83.82,123.59a.21.21,0,0,0,.15-.07.25.25,0,0,0,0-.33l-1.8-1.59a.23.23,0,1,0-.31.35l1.8,1.59A.24.24,0,0,0,83.82,123.59Z"/><path class="cls-4" d="M81.21,125a.18.18,0,0,0,.17-.11l.88-1.44a.24.24,0,0,0-.08-.32.24.24,0,0,0-.32.08L81,124.64a.24.24,0,0,0,.08.32A.21.21,0,0,0,81.21,125Z"/><path class="cls-4" d="M80.56,124a.23.23,0,0,0,.16-.1l1.33-2a.24.24,0,0,0-.06-.32.24.24,0,0,0-.33.06l-1.33,2a.23.23,0,0,0,.07.32A.19.19,0,0,0,80.56,124Z"/><path class="cls-4" d="M73.43,117l15.47-2a.31.31,0,0,0,.27-.35.31.31,0,0,0-.35-.27l-15.47,2a.31.31,0,0,0,.08.62Z"/><path class="cls-4" d="M75,116.62a.25.25,0,0,0,.17-.11.23.23,0,0,0-.08-.32l-1.44-.88a.24.24,0,0,0-.32.08.25.25,0,0,0,.08.33l1.44.87A.21.21,0,0,0,75,116.62Z"/><path class="cls-4" d="M73.87,118a.27.27,0,0,0,.14-.07l1.17-1.21a.23.23,0,0,0,0-.33.24.24,0,0,0-.33,0l-1.17,1.22a.24.24,0,0,0,0,.33A.23.23,0,0,0,73.87,118Z"/><path class="cls-4" d="M87.26,115a.21.21,0,0,0,.14-.07l1.16-1.21a.24.24,0,0,0,0-.33.24.24,0,0,0-.34,0l-1.16,1.21a.24.24,0,0,0,0,.33A.25.25,0,0,0,87.26,115Z"/><path class="cls-4" d="M88.71,116a.2.2,0,0,0,.17-.11.23.23,0,0,0-.07-.32l-1.44-.87a.24.24,0,0,0-.33.08.24.24,0,0,0,.08.32l1.44.87A.21.21,0,0,0,88.71,116Z"/><path class="cls-4" d="M78.17,123.17a.32.32,0,0,0,.25-.19l6-14.41a.31.31,0,1,0-.57-.24l-6,14.41a.31.31,0,0,0,.17.41A.3.3,0,0,0,78.17,123.17Z"/><path class="cls-4" d="M77.24,122.37l.08,0,1.48-.81a.23.23,0,0,0,.09-.32.23.23,0,0,0-.31-.09l-1.48.81a.23.23,0,0,0-.09.32A.21.21,0,0,0,77.24,122.37Z"/><path class="cls-4" d="M79.31,123.24h0a.25.25,0,0,0,.16-.29L79,121.32a.24.24,0,0,0-.29-.16.25.25,0,0,0-.16.29l.47,1.62A.24.24,0,0,0,79.31,123.24Z"/><path class="cls-4" d="M83.46,110.17h0a.23.23,0,0,0,.16-.29l-.46-1.62a.24.24,0,0,0-.29-.16.23.23,0,0,0-.16.29L83.2,110A.24.24,0,0,0,83.46,110.17Z"/><path class="cls-4" d="M83.59,110.23l.08,0,1.48-.81a.24.24,0,0,0,.09-.32.24.24,0,0,0-.32-.09l-1.47.81a.24.24,0,0,0-.1.32A.24.24,0,0,0,83.59,110.23Z"/><path class="cls-4" d="M85.94,122.14a.34.34,0,0,0,.15-.07.31.31,0,0,0,.06-.43L76.58,109.3a.31.31,0,0,0-.43-.06.32.32,0,0,0-.06.44L85.65,122A.33.33,0,0,0,85.94,122.14Z"/><path class="cls-4" d="M84.85,122.5a.25.25,0,0,0,.21-.23l0-1.68a.24.24,0,0,0-.47,0l0,1.68a.23.23,0,0,0,.23.24Z"/><path class="cls-4" d="M86.62,121.12a.22.22,0,0,0,.2-.17.23.23,0,0,0-.17-.28l-1.64-.4a.24.24,0,0,0-.28.17.24.24,0,0,0,.17.29l1.64.39Z"/><path class="cls-4" d="M77.32,111.06a.25.25,0,0,0,.2-.17.24.24,0,0,0-.18-.29l-1.63-.39a.23.23,0,0,0-.28.17.22.22,0,0,0,.17.28l1.63.4Z"/><path class="cls-4" d="M77.43,111a.24.24,0,0,0,.2-.23l0-1.68a.24.24,0,1,0-.47,0l0,1.68a.23.23,0,0,0,.23.24Z"/><path class="cls-4" d="M89.79,119.63a.29.29,0,0,0,.24-.19.31.31,0,0,0-.16-.41l-17.24-7.32a.31.31,0,0,0-.41.16.31.31,0,0,0,.17.41l17.23,7.33A.33.33,0,0,0,89.79,119.63Z"/><path class="cls-4" d="M74.06,112.8a.11.11,0,0,0,.08,0,.22.22,0,0,0,.1-.31l-.8-1.49a.24.24,0,1,0-.41.23l.8,1.48A.22.22,0,0,0,74.06,112.8Z"/><path class="cls-4" d="M75.48,113.4l.08,0a.23.23,0,0,0,.1-.31l-1-2.16a.24.24,0,0,0-.32-.11.23.23,0,0,0-.1.31l1,2.16A.22.22,0,0,0,75.48,113.4Z"/><path class="cls-4" d="M72.39,113.38h0l1.62-.45a.23.23,0,0,0,.16-.29.24.24,0,0,0-.29-.16l-1.62.45a.25.25,0,0,0-.16.29A.22.22,0,0,0,72.39,113.38Z"/><path class="cls-4" d="M73.15,114.28h0l2.28-.75a.23.23,0,0,0,.15-.29.22.22,0,0,0-.29-.15l-2.28.74a.24.24,0,0,0,.1.46Z"/><path class="cls-4" d="M88.29,118.84h0l1.62-.46a.23.23,0,0,0,.17-.28.24.24,0,0,0-.29-.17l-1.62.46a.24.24,0,0,0-.17.29A.24.24,0,0,0,88.29,118.84Z"/><path class="cls-4" d="M86.87,118.24h0l2.28-.74a.24.24,0,0,0,.15-.3.23.23,0,0,0-.29-.15l-2.28.75a.22.22,0,0,0-.15.29A.22.22,0,0,0,86.87,118.24Z"/><path class="cls-4" d="M89,120.46l.09,0a.24.24,0,0,0,.09-.32l-.8-1.48a.23.23,0,0,0-.41.22l.8,1.48A.24.24,0,0,0,89,120.46Z"/><path class="cls-4" d="M87.86,120.53l.07,0a.24.24,0,0,0,.11-.32L87,118a.22.22,0,0,0-.31-.11.24.24,0,0,0-.11.31l1.05,2.16A.24.24,0,0,0,87.86,120.53Z"/><path class="cls-4" d="M73.74,121.66a.47.47,0,0,0,.15-.06l14.85-11.41a.3.3,0,0,0,.06-.43.31.31,0,0,0-.44-.06L73.51,121.1a.31.31,0,0,0-.06.44A.33.33,0,0,0,73.74,121.66Z"/><path class="cls-4" d="M75,120.54a.24.24,0,0,0,0-.47l-1.68,0a.23.23,0,0,0-.24.23.23.23,0,0,0,.23.24l1.68,0Z"/><path class="cls-4" d="M76.2,119.6a.24.24,0,0,0,0-.47L73.79,119a.24.24,0,0,0,0,.47l2.39.15Z"/><path class="cls-4" d="M74.66,122.28a.22.22,0,0,0,.19-.17l.41-1.64a.24.24,0,0,0-.46-.11L74.4,122a.24.24,0,0,0,.17.29A.27.27,0,0,0,74.66,122.28Z"/><path class="cls-4" d="M75.81,122.06a.23.23,0,0,0,.2-.19l.47-2.35a.22.22,0,0,0-.18-.27.23.23,0,0,0-.28.18l-.47,2.35a.25.25,0,0,0,.18.28Z"/><path class="cls-4" d="M87.24,111.12a.25.25,0,0,0,.2-.17l.4-1.64a.24.24,0,0,0-.17-.28.24.24,0,0,0-.29.17l-.4,1.64a.24.24,0,0,0,.17.28Z"/><path class="cls-4" d="M86,112.06a.22.22,0,0,0,.2-.18l.48-2.35a.25.25,0,0,0-.19-.28.23.23,0,0,0-.27.18l-.48,2.36a.24.24,0,0,0,.19.27Z"/><path class="cls-4" d="M89,111.27a.24.24,0,0,0,.2-.23.24.24,0,0,0-.23-.24l-1.68,0a.23.23,0,0,0-.24.23.24.24,0,0,0,.23.24l1.68,0Z"/><path class="cls-4" d="M88.49,112.33a.25.25,0,0,0,.21-.22.24.24,0,0,0-.22-.25l-2.4-.15a.24.24,0,0,0,0,.47l2.4.15Z"/><polygon class="cls-7" points="61.57 92.19 62.94 92.54 62.92 93.96 64.29 93.58 64.98 94.82 65.97 93.8 67.19 94.53 67.55 93.16 68.97 93.18 68.58 91.81 69.82 91.12 68.81 90.13 69.54 88.91 68.16 88.55 68.18 87.13 66.81 87.52 66.12 86.28 65.13 87.29 63.91 86.56 63.56 87.94 62.14 87.92 62.52 89.28 61.28 89.97 62.3 90.97 61.57 92.19"/><polygon class="cls-4" points="63.78 91.28 64.39 91.43 64.38 92.06 64.99 91.89 65.3 92.45 65.74 92 66.28 92.32 66.44 91.71 67.07 91.72 66.9 91.11 67.45 90.8 67 90.36 67.32 89.82 66.71 89.66 66.72 89.03 66.11 89.2 65.81 88.65 65.36 89.1 64.82 88.78 64.67 89.39 64.03 89.38 64.2 89.99 63.65 90.29 64.1 90.73 63.78 91.28"/><path class="cls-4" d="M66.6,98.6a.26.26,0,0,0,.23-.3l-2-15.58a.25.25,0,0,0-.29-.22.27.27,0,0,0-.23.29l2,15.58A.26.26,0,0,0,66.6,98.6Z"/><path class="cls-4" d="M64.79,84.3a.22.22,0,0,0,.15-.1l.73-1.2a.19.19,0,0,0-.07-.27.2.2,0,0,0-.27.06L64.6,84a.2.2,0,0,0,.07.27A.27.27,0,0,0,64.79,84.3Z"/><path class="cls-4" d="M65,85.58a.22.22,0,0,0,.14-.08l1.12-1.68a.2.2,0,0,0-.06-.27.19.19,0,0,0-.27,0l-1.12,1.68a.2.2,0,0,0,.06.27A.16.16,0,0,0,65,85.58Z"/><path class="cls-4" d="M64.68,84.31a.14.14,0,0,0,.11-.06.18.18,0,0,0,0-.27l-1-1a.19.19,0,0,0-.28,0,.2.2,0,0,0,0,.28l1,1A.18.18,0,0,0,64.68,84.31Z"/><path class="cls-4" d="M64.85,85.6a.21.21,0,0,0,.12-.07.2.2,0,0,0,0-.28l-1.51-1.33a.19.19,0,0,0-.27,0,.19.19,0,0,0,0,.28l1.51,1.33A.22.22,0,0,0,64.85,85.6Z"/><path class="cls-4" d="M67.49,98.14a.34.34,0,0,0,.12-.06.2.2,0,0,0,0-.28l-1-1a.19.19,0,0,0-.27,0,.18.18,0,0,0,0,.27l1,1A.19.19,0,0,0,67.49,98.14Z"/><path class="cls-4" d="M67.81,97.21a.24.24,0,0,0,.13-.07.2.2,0,0,0,0-.28l-1.51-1.33a.2.2,0,1,0-.26.3l1.51,1.33A.21.21,0,0,0,67.81,97.21Z"/><path class="cls-4" d="M65.63,98.38a.22.22,0,0,0,.14-.09l.73-1.21a.2.2,0,1,0-.34-.2l-.73,1.2a.19.19,0,0,0,.07.27A.15.15,0,0,0,65.63,98.38Z"/><path class="cls-4" d="M65.07,97.56a.16.16,0,0,0,.14-.08l1.12-1.68a.2.2,0,0,0-.06-.27.19.19,0,0,0-.27,0l-1.12,1.68a.2.2,0,0,0,.06.27A.16.16,0,0,0,65.07,97.56Z"/><path class="cls-4" d="M59.09,91.65l13-1.69a.26.26,0,0,0-.07-.52L59,91.13a.26.26,0,0,0-.23.3A.26.26,0,0,0,59.09,91.65Z"/><path class="cls-4" d="M60.43,91.35a.17.17,0,0,0,.14-.09.2.2,0,0,0-.06-.27l-1.21-.73a.2.2,0,1,0-.2.34l1.2.73A.2.2,0,0,0,60.43,91.35Z"/><path class="cls-4" d="M59.47,92.49a.24.24,0,0,0,.11-.06l1-1a.19.19,0,1,0-.28-.27l-1,1a.2.2,0,0,0,.17.33Z"/><path class="cls-4" d="M70.69,90a.17.17,0,0,0,.12-.05l1-1a.2.2,0,0,0,0-.28.19.19,0,0,0-.27,0l-1,1a.19.19,0,0,0,0,.28A.2.2,0,0,0,70.69,90Z"/><path class="cls-4" d="M71.92,90.86a.18.18,0,0,0,.14-.09A.19.19,0,0,0,72,90.5l-1.2-.73a.2.2,0,0,0-.21.33l1.21.74A.19.19,0,0,0,71.92,90.86Z"/><path class="cls-4" d="M63.07,96.85a.26.26,0,0,0,.21-.16l5-12.09a.27.27,0,0,0-.14-.34.26.26,0,0,0-.34.14l-5,12.09a.27.27,0,0,0,.14.34A.23.23,0,0,0,63.07,96.85Z"/><path class="cls-4" d="M62.29,96.18l.07,0,1.24-.68a.2.2,0,0,0,.08-.27.19.19,0,0,0-.27-.07l-1.24.68a.18.18,0,0,0-.07.26A.18.18,0,0,0,62.29,96.18Z"/><path class="cls-4" d="M64,96.91h0a.2.2,0,0,0,.13-.24L63.8,95.3a.2.2,0,0,0-.24-.13.19.19,0,0,0-.13.24l.39,1.36A.2.2,0,0,0,64,96.91Z"/><path class="cls-4" d="M67.51,86h0a.2.2,0,0,0,.13-.24l-.39-1.36a.2.2,0,0,0-.38.11l.39,1.36A.21.21,0,0,0,67.51,86Z"/><path class="cls-4" d="M67.62,86l.07,0,1.23-.68A.2.2,0,0,0,69,85a.18.18,0,0,0-.26-.07l-1.24.68a.19.19,0,0,0,.12.36Z"/><path class="cls-4" d="M69.59,96a.24.24,0,0,0,.13,0,.27.27,0,0,0,0-.37l-8-10.35a.27.27,0,0,0-.37,0,.25.25,0,0,0,0,.36l8,10.35A.26.26,0,0,0,69.59,96Z"/><path class="cls-4" d="M68.68,96.29a.21.21,0,0,0,.17-.19l0-1.42a.21.21,0,0,0-.19-.2.2.2,0,0,0-.2.2l0,1.41a.2.2,0,0,0,.2.2Z"/><path class="cls-4" d="M70.16,95.13a.19.19,0,0,0,.17-.14.2.2,0,0,0-.15-.24l-1.37-.33a.2.2,0,1,0-.09.38l1.37.33A.08.08,0,0,0,70.16,95.13Z"/><path class="cls-4" d="M62.36,86.69a.18.18,0,0,0,.16-.15.19.19,0,0,0-.14-.23L61,86a.19.19,0,0,0-.23.14.2.2,0,0,0,.14.24l1.38.33A.08.08,0,0,0,62.36,86.69Z"/><path class="cls-4" d="M62.45,86.62a.19.19,0,0,0,.17-.19l0-1.41a.2.2,0,1,0-.39,0l0,1.41a.19.19,0,0,0,.19.2Z"/><path class="cls-4" d="M72.82,93.88a.24.24,0,0,0,.2-.16.25.25,0,0,0-.14-.34L58.42,87.23a.27.27,0,0,0-.34.14.26.26,0,0,0,.14.35l14.46,6.14A.22.22,0,0,0,72.82,93.88Z"/><path class="cls-4" d="M59.62,88.15l.07,0a.2.2,0,0,0,.08-.27l-.67-1.24a.19.19,0,1,0-.34.18l.67,1.25A.2.2,0,0,0,59.62,88.15Z"/><path class="cls-4" d="M60.82,88.66l.06,0a.2.2,0,0,0,.09-.26l-.88-1.82a.21.21,0,0,0-.26-.09.2.2,0,0,0-.09.27l.87,1.81A.23.23,0,0,0,60.82,88.66Z"/><path class="cls-4" d="M58.22,88.64h0l1.36-.38a.2.2,0,0,0,.13-.24.19.19,0,0,0-.24-.14l-1.36.38a.22.22,0,0,0-.14.25A.21.21,0,0,0,58.22,88.64Z"/><path class="cls-4" d="M58.86,89.39h0l1.92-.62a.2.2,0,0,0,.12-.25.19.19,0,0,0-.25-.13L58.77,89a.18.18,0,0,0-.12.24A.19.19,0,0,0,58.86,89.39Z"/><path class="cls-4" d="M71.56,93.22h0L73,92.84a.22.22,0,0,0,.14-.25.2.2,0,0,0-.25-.13l-1.36.38a.19.19,0,0,0,.08.38Z"/><path class="cls-4" d="M70.37,92.71h0l1.91-.63a.19.19,0,0,0,.12-.25.18.18,0,0,0-.24-.12l-1.92.62a.2.2,0,0,0-.12.25A.19.19,0,0,0,70.37,92.71Z"/><path class="cls-4" d="M72.19,94.57l.06,0a.2.2,0,0,0,.08-.27L71.66,93a.19.19,0,1,0-.34.19L72,94.47A.2.2,0,0,0,72.19,94.57Z"/><path class="cls-4" d="M71.2,94.63h.06a.2.2,0,0,0,.09-.27l-.87-1.81a.2.2,0,0,0-.27-.09.19.19,0,0,0-.09.26L71,94.52A.2.2,0,0,0,71.2,94.63Z"/><path class="cls-4" d="M59.35,95.58a.21.21,0,0,0,.13,0L71.94,86a.25.25,0,0,0,0-.36.26.26,0,0,0-.37,0L59.16,95.12a.25.25,0,0,0,0,.36A.24.24,0,0,0,59.35,95.58Z"/><path class="cls-4" d="M60.39,94.64a.19.19,0,0,0,.17-.19.19.19,0,0,0-.19-.2l-1.41,0a.2.2,0,0,0-.2.19.19.19,0,0,0,.19.2l1.41,0Z"/><path class="cls-4" d="M61.42,93.85a.19.19,0,0,0,.17-.18.2.2,0,0,0-.18-.21l-2-.12a.19.19,0,0,0-.21.18.19.19,0,0,0,.18.21l2,.12Z"/><path class="cls-4" d="M60.12,96.11a.2.2,0,0,0,.17-.15l.34-1.37a.2.2,0,0,0-.15-.24.19.19,0,0,0-.23.14l-.34,1.37a.19.19,0,0,0,.14.24Z"/><path class="cls-4" d="M61.09,95.92a.2.2,0,0,0,.17-.16l.4-2a.2.2,0,0,0-.39-.08l-.4,2a.21.21,0,0,0,.16.24Z"/><path class="cls-4" d="M70.68,86.74a.18.18,0,0,0,.16-.14l.34-1.37A.19.19,0,0,0,71,85a.2.2,0,0,0-.24.14l-.34,1.37a.2.2,0,0,0,.15.24A.09.09,0,0,0,70.68,86.74Z"/><path class="cls-4" d="M69.65,87.53a.2.2,0,0,0,.17-.15l.4-2a.2.2,0,0,0-.16-.23.2.2,0,0,0-.23.16l-.4,2a.2.2,0,0,0,.16.23A.06.06,0,0,0,69.65,87.53Z"/><path class="cls-4" d="M72.16,86.87a.2.2,0,0,0,.17-.2.2.2,0,0,0-.19-.2l-1.41,0a.19.19,0,0,0-.2.19.19.19,0,0,0,.19.2l1.41,0Z"/><path class="cls-4" d="M71.73,87.75a.18.18,0,0,0,.17-.18.19.19,0,0,0-.18-.21l-2-.12a.19.19,0,0,0-.21.18.2.2,0,0,0,.19.21l2,.12Z"/></g></g></g></svg>