<svg xmlns="http://www.w3.org/2000/svg" viewBox="0 0 131.09 131.99"><defs><style>.cls-1{fill:#c9e7f4;}.cls-2{fill:#fff;}.cls-3{fill:#f2d231;}.cls-4{fill:#c6ccce;}.cls-5{fill:#b8bebf;}</style></defs><g id="Layer_2" data-name="Layer 2"><g id="OBJECTS"><path class="cls-1" d="M.47,30.39s-2.12,86.26,2.65,94.86c3.93,7.07,24.08,6.55,42.68,6s73.63,3.15,80.44-2.36,4.46-49.2,4.46-64.19c0-17,0-49.52-2.36-56.86S95.06,0,67.55,0,10.5.46,6,3.67C.5,7.6.47,30.39.47,30.39Z"/><path class="cls-2" d="M44.35,85.77s-5,8.75-1.15,8.72S44.35,85.77,44.35,85.77Z"/><path class="cls-2" d="M30.16,78.32S25.2,87.06,29,87,30.16,78.32,30.16,78.32Z"/><path class="cls-2" d="M58.67,82s-5,8.74-1.15,8.71S58.67,82,58.67,82Z"/><path class="cls-2" d="M89.52,78.49s-5,8.74-1.15,8.71S89.52,78.49,89.52,78.49Z"/><path class="cls-2" d="M65.79,95.28s-5,8.74-1.15,8.71S65.79,95.28,65.79,95.28Z"/><path class="cls-2" d="M60.55,111.45s-5,8.75-1.15,8.72S60.55,111.45,60.55,111.45Z"/><path class="cls-2" d="M85.85,114.57s-5,8.75-1.16,8.72S85.85,114.57,85.85,114.57Z"/><path class="cls-2" d="M51.47,99s-5,8.74-1.16,8.72S51.47,99,51.47,99Z"/><path class="cls-2" d="M46.75,115.81s-5,8.74-1.15,8.72S46.75,115.81,46.75,115.81Z"/><path class="cls-2" d="M34.65,100.21s-5,8.75-1.15,8.72S34.65,100.21,34.65,100.21Z"/><path class="cls-2" d="M74.64,81.94s-5,8.75-1.15,8.72S74.64,81.94,74.64,81.94Z"/><path class="cls-2" d="M72.29,114.57s-5,8.75-1.15,8.72S72.29,114.57,72.29,114.57Z"/><path class="cls-2" d="M80.61,97.14s-5,8.74-1.15,8.71S80.61,97.14,80.61,97.14Z"/><path class="cls-2" d="M104,77.67s-5,8.74-1.15,8.72S104,77.67,104,77.67Z"/><path class="cls-2" d="M95.08,97.14s-5,8.74-1.15,8.71S95.08,97.14,95.08,97.14Z"/><path class="cls-3" d="M65.79,60.9c-.45,1.43-12,33.61-12,33.61l13.34-.65L56.46,119.24l31.6-33.87-16.81-.21L86.78,63.37"/><path class="cls-4" d="M61.63,77.52s37.75,1.34,54.89-13,1.13-23.68-8.71-19c0,0,7.41-12.64-3-17.72s-17.88,6.74-17.88,6.74S91.16,11.1,70.18,8.07,41.7,35.22,41.7,35.22,18.69,20.45,8.87,41C-1.31,62.24,32.15,78.22,61.63,77.52Z"/><path class="cls-2" d="M81.61,33.34c-.87-7-4.26-12.15-5-14S78.14,17.2,79,18.18c3,3.55,4.66,11.9,3.82,15.06a.62.62,0,0,1-1.17.1Z"/><path class="cls-2" d="M74.77,15.9c-.84-.09-4.07-2.61-4.42-3.5a1.2,1.2,0,0,1,.89-1.61,3.77,3.77,0,0,1,3.08,1.83c.53.69,1.43,2,1,2.91a.6.6,0,0,1-.57.37Z"/><path class="cls-5" d="M112.1,59.87S93.43,71.06,62,71.81,14.38,54,12.08,50.3c2.13-3,7.29-4.19,10.75-3.42s6.34,2.9,9.07,5,5.48,4.38,8.85,5.42C49.47,60,59.41,54,68.45,55.7c5.12.94,9.5,4.29,14.74,4.54s10-2.51,15-4S110,55.4,112.1,59.87Z"/></g></g></svg>