<svg xmlns="http://www.w3.org/2000/svg" viewBox="0 0 131.09 131.99"><defs><style>.cls-1{isolation:isolate;}.cls-2{fill:#c9e7f4;}.cls-3{fill:#f2d231;}.cls-4{fill:#fff;}.cls-5{fill:#e6af29;mix-blend-mode:multiply;opacity:0.2;}</style></defs><g class="cls-1"><g id="Layer_2" data-name="Layer 2"><g id="OBJECTS"><path class="cls-2" d="M.47,30.39s-2.12,86.26,2.65,94.86c3.93,7.07,24.08,6.55,42.68,6s73.63,3.15,80.44-2.36,4.46-49.2,4.46-64.19c0-17,0-49.52-2.36-56.86S95.06,0,67.55,0,10.5.46,6,3.67C.5,7.6.47,30.39.47,30.39Z"/><path class="cls-3" d="M97,49.12c2.43-2.72,7.36-5.71,8.94-6.58,2.51-1.47,4.3,2.18,1.85,3.56a52.7,52.7,0,0,1-10,4.42A.92.92,0,0,1,97,49.12Z"/><path class="cls-3" d="M35.54,83.63c-2.42,2.72-7.35,5.72-8.93,6.59-2.51,1.46-4.3-2.18-1.85-3.56a52.66,52.66,0,0,1,10-4.42A.9.9,0,0,1,35.54,83.63Z"/><path class="cls-3" d="M85.11,36.25c.86-3.57,3.77-8.6,4.75-10.13,1.52-2.52,4.8-.19,3.3,2.22a54,54,0,0,1-6.73,8.77A.9.9,0,0,1,85.11,36.25Z"/><path class="cls-3" d="M47.4,96.5c-.85,3.57-3.76,8.6-4.74,10.14-1.52,2.51-4.81.18-3.31-2.23a54.43,54.43,0,0,1,6.74-8.77A.89.89,0,0,1,47.4,96.5Z"/><path class="cls-3" d="M68.81,30.75c-.92-3.56-.7-9.4-.55-11.22a2,2,0,1,1,3.94.36,55.19,55.19,0,0,1-1.83,11A.89.89,0,0,1,68.81,30.75Z"/><path class="cls-3" d="M63.71,102c.91,3.55.69,9.39.55,11.21a2,2,0,1,1-3.94-.36,55.32,55.32,0,0,1,1.83-11A.89.89,0,0,1,63.71,102Z"/><path class="cls-3" d="M50.37,34.53C47.79,32,45,26.85,44.21,25.21a2,2,0,1,1,3.56-1.77,55.12,55.12,0,0,1,4,10.37A.9.9,0,0,1,50.37,34.53Z"/><path class="cls-3" d="M82.15,98.23c2.58,2.56,5.35,7.68,6.15,9.31a2,2,0,1,1-3.55,1.77,54.86,54.86,0,0,1-4-10.37A.89.89,0,0,1,82.15,98.23Z"/><path class="cls-3" d="M36.32,47.76c-3.52-.8-8.52-3.68-10-4.64a2,2,0,1,1,2.12-3.41,53.45,53.45,0,0,1,8.74,6.69A.91.91,0,0,1,36.32,47.76Z"/><path class="cls-3" d="M96.2,85c3.52.8,8.51,3.67,10,4.64a2,2,0,1,1-2.12,3.4,52.89,52.89,0,0,1-8.74-6.69A.9.9,0,0,1,96.2,85Z"/><path class="cls-3" d="M31.57,65.75c-3.39,1.25-9.12,1.57-10.92,1.59-2.89.1-2.8-4,0-4a52.77,52.77,0,0,1,10.91.86A.92.92,0,0,1,31.57,65.75Z"/><path class="cls-3" d="M101.33,65.69c3.39-1.25,9.12-1.56,10.92-1.58,2.89-.11,2.81,4,0,4a52.77,52.77,0,0,1-10.91-.86A.92.92,0,0,1,101.33,65.69Z"/><path class="cls-3" d="M91.31,41.37c1.63-3.28,5.59-7.51,6.88-8.78,2-2.09,4.72.93,2.72,2.93a53.72,53.72,0,0,1-8.51,7A.91.91,0,0,1,91.31,41.37Z"/><path class="cls-3" d="M41.2,91.38c-1.62,3.28-5.58,7.51-6.87,8.78-2,2.1-4.72-.93-2.73-2.93a53.91,53.91,0,0,1,8.51-7A.9.9,0,0,1,41.2,91.38Z"/><path class="cls-3" d="M76.5,32.21c-.11-3.67,1.37-9.32,1.91-11.06.8-2.83,4.58-1.49,3.77,1.24A55.52,55.52,0,0,1,78,32.68.9.9,0,0,1,76.5,32.21Z"/><path class="cls-3" d="M56,100.54c.12,3.68-1.37,9.32-1.91,11.06-.79,2.84-4.57,1.49-3.76-1.24a54.72,54.72,0,0,1,4.18-10.29A.89.89,0,0,1,56,100.54Z"/><path class="cls-3" d="M59.35,31.35c-1.82-3.17-3.14-8.86-3.48-10.66A2,2,0,1,1,59.76,20a55.35,55.35,0,0,1,1.12,11.08A.89.89,0,0,1,59.35,31.35Z"/><path class="cls-3" d="M73.17,101.4c1.82,3.18,3.14,8.86,3.48,10.66a2,2,0,1,1-3.89.73,54.75,54.75,0,0,1-1.12-11.08A.89.89,0,0,1,73.17,101.4Z"/><path class="cls-3" d="M42.58,40c-3.17-1.76-7.18-5.93-8.39-7.3a2,2,0,1,1,3-2.67A54.41,54.41,0,0,1,43.73,39,.9.9,0,0,1,42.58,40Z"/><path class="cls-3" d="M89.94,92.73c3.17,1.77,7.18,5.94,8.38,7.3a2,2,0,1,1-3,2.67,54.13,54.13,0,0,1-6.58-8.9A.9.9,0,0,1,89.94,92.73Z"/><path class="cls-3" d="M32.52,56.6c-3.6.19-9.17-1.22-10.9-1.73A2,2,0,1,1,22.77,51,52.63,52.63,0,0,1,33,55.07.92.92,0,0,1,32.52,56.6Z"/><path class="cls-3" d="M100,76.15c3.6-.19,9.17,1.22,10.89,1.74a2,2,0,1,1-1.14,3.85,53,53,0,0,1-10.19-4.06A.92.92,0,0,1,100,76.15Z"/><path class="cls-3" d="M32.59,74.66c-2.94,2.13-8.38,4-10.11,4.5-2.75.89-3.74-3.06-1.07-3.88a52.57,52.57,0,0,1,10.73-2.15A.92.92,0,0,1,32.59,74.66Z"/><path class="cls-3" d="M99.87,56.15c2.94-2.13,8.38-4,10.1-4.5,2.76-.89,3.75,3.06,1.07,3.88a53,53,0,0,1-10.73,2.15A.92.92,0,0,1,99.87,56.15Z"/><path class="cls-3" d="M37.67,72.21C40.74,88,56.69,98,73.29,94.63s27.57-18.84,24.5-34.58-19-25.78-35.61-22.42S34.6,56.47,37.67,72.21Z"/><path class="cls-4" d="M56.81,43.5C51,47.19,47.66,52.34,46.28,53.75s-2.38-.47-1.8-1.61c2.08-4.11,8.79-9.08,11.84-9.64a.58.58,0,0,1,.49,1Z"/><path class="cls-4" d="M43.92,56.83a12.28,12.28,0,0,1-1.54,5.4,1.08,1.08,0,0,1-1.71-.14,3.94,3.94,0,0,1,.54-3.51c.42-.75,1.25-2.09,2.19-2.11a.52.52,0,0,1,.52.36Z"/><path class="cls-5" d="M93.72,55.25s5.7,12.62-2.48,25.08S65.63,96.52,51.16,88.22a8.25,8.25,0,0,1,8-6.31c2.78.06,6,1.55,8.06-.4,1.36-1.31,1.31-3.51,2.12-5.23,1.35-2.89,4.79-4,7.86-4.7s6.5-1.72,8-4.57A11.43,11.43,0,0,0,86,62a11.1,11.1,0,0,1,.9-5c.81-1.5,5.16-2.15,6.75-1.57Z"/></g></g></g></svg>